PathFileType	4	(X/Y/Z)	C:\Users\°ÂÌØÂü\Desktop\20210112\bx_y_10_502-Unnamed.trc
DataRate	CameraRate	NumFrames	NumMarkers	Units	OrigDataRate	OrigDataStartFrame	OrigNumFrames
50.00	50.00	       4	0	mm	50.00	375	       499
Frame#	Time	
		

375	7.480	-838.07379	-44.20056	603.30298	-783.26117	203.05412	532.59320	-841.89575	269.58035	864.34711	-776.39734	203.07024	803.90063	-867.14600	-70.51478	699.49225	-404.64511	-81.59786	1223.01709	-399.93726	241.88721	1233.10144	-848.41785	242.26872	560.54797	-775.17554	3.92948	522.11884	-867.22986	256.08151	481.10239				-773.25793	-20.96021	796.15942	-848.90417	-83.02486	854.62885	-778.92395	228.29720	199.86330	-882.57471	296.23981	144.74919	-678.30457	51.64144	165.03860	-605.54480	18.20574	168.82506	-678.68665	176.26939	163.79204	-598.34161	223.42612	173.95346	-666.25934	300.63028	158.12469	-628.51331	307.82181	161.09634	-563.22809	258.88623	165.03619	-528.21844	303.74774	146.10005	-213.43582	89.39632	1433.66602	-863.15497	246.98936	618.11780				-518.01526	-72.50963	143.06497	-801.73401	178.22450	179.93314							-775.70923	-12.39253	199.30771	-798.82910	49.85370	171.72070	-859.06201	-49.44386	465.32657	-666.20929	-70.47231	159.39400	-876.13934	-78.71100	141.67271							-562.79089	-37.17400	163.10994	-623.50031	-81.18616	157.04709	-868.32520	277.01755	732.82819	-957.23364	75.18095	1088.92480	-723.53119	159.22057	222.74174	-837.01666	-39.96297	553.29974	
376	7.500	-836.32544	-43.86161	603.32910	-782.03424	203.38297	532.88782	-839.02380	269.92551	864.86932	-773.67261	202.84758	804.37299	-865.02039	-69.86601	699.75806	-407.44678	-82.26203	1232.39380	-402.34229	242.45676	1243.77551	-846.60303	242.67679	560.82379	-773.70044	4.59851	522.04443	-866.22406	256.26083	481.46942				-770.83978	-20.55451	796.52850	-846.16620	-82.08571	855.26251	-778.71497	228.03339	199.78601	-882.37628	296.02225	144.68523	-678.09796	51.65876	164.80618	-605.51733	18.19762	168.80295	-678.81543	176.32857	163.64465	-598.21246	223.47548	174.07761	-666.25934	300.63028	158.12469	-628.61816	308.09918	161.32101	-563.24518	258.92188	165.01575	-528.12482	304.08368	146.39049	-219.07155	88.73755	1448.20374	-861.26239	247.26649	618.94800				-518.07434	-72.39948	142.80666	-801.69012	178.31209	180.16533							-775.69891	-12.06113	199.14220	-798.85370	49.85553	171.71513	-857.79163	-49.16842	465.78452	-666.15112	-70.48959	159.48332	-876.13934	-78.71100	141.67271							-562.87457	-37.06598	163.23843	-623.64325	-81.14600	156.86401	-865.61670	276.87531	733.63104	-955.72015	76.08527	1088.31287	-722.99225	158.95143	222.64024	-835.42188	-39.29805	553.30609	
377	7.520	-834.20746	-43.21939	603.49310	-780.55658	203.54504	532.92761	-835.79205	270.68903	865.63495	-770.89929	203.37595	804.96289	-862.79596	-69.10662	700.80969	-410.43234	-83.16023	1242.96289	-405.25116	242.56810	1254.85071	-845.36902	242.52527	561.35840	-772.63953	4.28020	522.04498	-865.27026	256.73392	482.19958	-730.36688	68.45580	221.65817	-767.99872	-19.93761	797.14868	-843.26862	-82.13888	856.49426	-778.81415	228.01535	199.69662	-882.42224	296.21420	144.80258	-678.22980	51.64095	164.87631	-605.51733	18.19762	168.80295	-678.94421	176.18884	163.83774	-598.40082	223.57294	173.89951	-666.47369	300.61066	158.36632	-628.64307	308.01419	161.30453	-563.23865	258.89590	165.00298	-528.17462	303.91663	146.31383	-225.29918	88.27525	1463.17419	-859.28522	247.28816	619.74609				-518.16370	-72.39424	142.80006	-801.69305	178.20990	180.15025							-775.94812	-11.99192	199.71953	-799.01489	49.92687	172.06520	-857.08392	-49.03012	466.05322	-666.20929	-70.47231	159.39400	-876.03320	-78.59757	141.50241							-562.82233	-37.14986	163.10291	-623.55524	-81.11661	157.05144	-863.17126	277.15814	734.17206	-954.24200	76.59518	1088.00378	-723.00977	158.71515	222.57036	-834.21606	-39.35932	553.79388	
378	7.540	-832.27063	-43.25314	604.73157	-778.60675	203.75713	533.45856	-832.38513	269.99283	866.30725	-767.94659	203.37354	805.66797	-860.16760	-68.77181	701.43628	-414.38239	-83.51823	1253.59814	-407.30273	244.14474	1267.12415	-843.67670	243.70331	562.13501	-770.91296	4.65298	522.29376	-863.80414	256.63293	482.44003	-730.07159	69.20329	222.51379	-765.27094	-19.82800	797.59210	-839.80609	-81.50190	856.98279	-778.63910	228.06259	199.88068	-882.42657	296.15445	144.70587	-678.04303	52.06826	164.69563	-605.46216	18.16827	168.88828	-678.80182	176.11482	163.99666	-598.41028	223.69257	173.76427	-666.35504	300.65497	158.30875	-628.70862	308.22534	161.45175	-563.20490	258.88416	164.97887	-528.08185	303.57599	146.20544	-232.05598	88.12943	1478.47876	-857.67206	247.27809	620.76196				-518.03412	-72.46815	142.73677	-801.73932	178.30167	180.17415							-775.90100	-11.82319	199.79848	-798.78857	50.05707	171.76181	-855.58734	-48.86677	466.99429	-666.20929	-70.47231	159.39400	-876.05151	-78.64049	141.43311							-562.79938	-37.22116	163.09048	-623.51398	-81.24927	156.99387	-860.28656	276.96011	734.97949	-952.95233	76.67520	1087.79370	-722.67944	158.90205	222.56903	-832.51324	-39.30597	554.58240	
